<?xml version="1.0" standalone="no"?><!DOCTYPE svg PUBLIC "-//W3C//DTD SVG 1.1//EN" "http://www.w3.org/Graphics/SVG/1.1/DTD/svg11.dtd"><svg t="1597458284880" class="icon" viewBox="0 0 1024 1024" version="1.1" xmlns="http://www.w3.org/2000/svg" p-id="1779" xmlns:xlink="http://www.w3.org/1999/xlink" width="200" height="200"><defs><style type="text/css"></style></defs><path d="M274.697747 506.032634v-19.095571H625.181041c12.730381-0.397824 24.665113-3.58042 36.20202-9.149961 11.536908-5.569542 21.880342-13.52603 30.234655-23.47164 8.354312-9.94561 14.719503-21.084693 18.299922-33.019425 0.397824-1.591298 0.795649-3.182595 1.193473-4.376068 0.397824-1.591298 1.193473-2.784771 1.193473-4.376068 0-1.591298 0.397824-3.182595 0.795649-4.773893 0.397824-1.591298 0.795649-3.182595 0.795649-4.773893v-4.773893c0-1.989122 0.397824-2.386946 0.397824-6.763015V346.902875c0-4.773893-0.397824-5.171717-0.397824-6.763015v-4.773893c0-1.591298-0.397824-3.182595-0.795649-4.773892-0.397824-1.591298-0.397824-3.182595-0.795649-4.773893 0-1.591298-0.795649-3.182595-1.193473-4.376069-0.397824-1.591298-0.795649-3.182595-1.193473-4.376068-3.58042-11.934732-9.547786-23.471639-18.299922-33.019425-8.354312-9.94561-18.697747-17.902098-30.234655-23.471639-11.536908-5.569542-23.471639-8.752137-36.20202-9.149962H274.697747v-19.095571H626.374514c15.117327 0.795649 30.234654 4.376068 43.760684 11.139083 13.52603 6.763015 26.25641 16.3108 36.20202 28.245533s17.504274 25.460761 21.880342 40.180264c0.397824 1.989122 0.795649 3.58042 1.193473 5.569541 0.397824 1.989122 1.193473 3.58042 1.193474 5.569542 0.397824 1.989122 0.397824 3.58042 0.795648 5.569542 0.397824 1.989122 0.795649 3.58042 0.795649 5.569541 0 1.989122 0 3.978244 0.397825 5.569542 0 1.989122 0.397824 3.182595 0.397824 7.558663v44.556333c0 4.376068-0.397824 5.569542-0.397824 7.558663s-0.397824 3.978244-0.397825 5.569542c0 1.989122-0.397824 3.58042-0.795649 5.569542-0.397824 1.989122-0.397824 3.58042-0.795648 5.569541 0 1.989122-0.795649 3.58042-1.193474 5.569542-0.397824 1.989122-0.795649 3.58042-1.193473 5.569541-4.376068 14.719503-11.934732 28.245532-21.880342 40.180264s-22.675991 21.482517-36.20202 28.245533c-13.52603 6.763015-28.643357 10.741259-43.760684 11.139083H274.697747z" fill="#F2F2F2" p-id="1780"></path><path d="M274.697747 525.128205v-19.095571H626.374514c15.117327-0.795649 30.234654-4.376068 43.760684-11.139083 13.52603-6.763015 26.25641-16.3108 36.20202-28.245532s17.504274-25.460761 21.880342-40.180265c0.397824-1.989122 0.795649-3.58042 1.193473-5.569541 0.397824-1.989122 1.193473-3.58042 1.193474-5.569542 0.397824-1.989122 0.397824-3.58042 0.795648-5.569541 0.397824-1.989122 0.795649-3.58042 0.795649-5.569542 0-1.989122 0-3.978244 0.397825-5.569541 0-1.989122 0.397824-3.182595 0.397824-7.558664V346.505051c0-4.376068-0.397824-5.569542-0.397824-7.558664s-0.397824-3.978244-0.397825-5.569542c0-1.989122-0.397824-3.58042-0.795649-5.569541-0.397824-1.989122-0.397824-3.58042-0.795648-5.569542 0-1.989122-0.795649-3.58042-1.193474-5.569541-0.397824-1.989122-0.795649-3.58042-1.193473-5.569542-4.376068-14.719503-11.934732-28.245532-21.880342-40.180264s-22.675991-21.482517-36.20202-28.245532c-13.52603-6.763015-28.643357-10.741259-43.760684-11.139083H274.697747v-19.095572H623.589744l3.182595 0.397825c17.902098 0.795649 35.406371 5.171717 51.319347 13.128205 15.912976 7.956488 30.632479 19.095571 42.169386 33.019425 11.934732 13.52603 20.686869 29.83683 25.460762 46.943279 0.397824 1.989122 1.193473 4.376068 1.591297 6.36519 0.397824 1.989122 1.591298 4.376068 1.591298 6.365191 0.397824 2.386946 0.795649 4.376068 0.795649 6.763014 0.397824 2.386946 0.795649 4.376068 0.795648 6.763015 0 2.386946 0 4.376068 0.397825 6.763015 0 2.386946 0.397824 3.978244 0.397824 8.354312v44.556333c0 4.376068-0.397824 5.967366-0.397824 8.354312 0 2.386946-0.397824 4.376068-0.397825 6.763015 0 2.386946-0.397824 4.376068-0.795648 6.763015-0.397824 2.386946-0.795649 4.376068-0.795649 6.763015 0 2.386946-1.193473 4.376068-1.591298 6.36519-0.397824 1.989122-1.193473 4.376068-1.591297 6.36519-5.171717 17.106449-13.923854 33.019425-25.460762 46.943279-11.934732 13.923854-26.25641 25.062937-42.169386 33.019425-15.912976 7.956488-33.417249 12.332556-51.319347 13.128205l-3.182595 0.397825H274.697747z" fill="" p-id="1781"></path><path d="M274.697747 544.223776V525.128205H623.589744l3.182595-0.397824c17.902098-0.795649 35.406371-5.171717 51.319347-13.128205 15.912976-7.956488 30.632479-19.095571 42.169386-33.019425 11.934732-13.52603 20.686869-29.83683 25.460762-46.943279 0.397824-1.989122 1.193473-4.376068 1.591297-6.365191 0.397824-1.989122 1.591298-4.376068 1.591298-6.36519 0.397824-2.386946 0.795649-4.376068 0.795649-6.763015 0.397824-2.386946 0.795649-4.376068 0.795648-6.763015 0-2.386946 0-4.376068 0.397825-6.763014 0-2.386946 0.397824-3.978244 0.397824-8.354313V345.709402c0-4.376068-0.397824-5.967366-0.397824-8.354313 0-2.386946-0.397824-4.376068-0.397825-6.763014 0-2.386946-0.397824-4.376068-0.795648-6.763015-0.397824-2.386946-0.795649-4.376068-0.795649-6.763015 0-2.386946-1.193473-4.376068-1.591298-6.36519-0.397824-1.989122-1.193473-4.376068-1.591297-6.365191-5.171717-17.106449-13.923854-33.019425-25.460762-46.943279-11.934732-13.923854-26.25641-25.062937-42.169386-33.019425-15.912976-7.956488-33.417249-12.332556-51.319347-13.128205l-3.182595-0.397824H274.697747v-19.095571H623.987568l3.978244 0.397824c20.686869 0.795649 40.578089 5.967366 58.878011 15.117327 18.299922 9.149961 35.008547 21.880342 48.534576 37.793318 13.52603 15.515152 23.471639 34.212898 29.439006 53.706294l1.989122 7.558663c0.397824 2.386946 1.591298 4.773893 1.591297 7.558664l1.193474 7.558663c0.397824 2.386946 1.193473 5.171717 0.795648 7.558664l0.397825 7.558664c0 2.784771 0.397824 4.773893 0.397824 8.752136V389.86791c0 4.376068-0.397824 5.967366-0.397824 8.752137l-0.397825 7.558663c0 2.784771-0.795649 5.171717-0.795648 7.558664l-1.193474 7.558663c0 2.386946-1.193473 4.773893-1.591297 7.558664l-1.989122 7.558663c-5.967366 19.493395-15.912976 38.191142-29.439006 53.706294-13.52603 15.515152-30.234654 28.643357-48.534576 37.793318s-38.588967 14.321678-58.878011 15.117327l-3.978244 0.397824H274.697747z" fill="#F2F2F2" p-id="1782"></path><path d="M274.697747 563.319347v-19.095571H623.987568l3.978244-0.397824c20.686869-0.795649 40.578089-5.967366 58.878011-15.117327 18.299922-9.149961 35.008547-21.880342 48.534576-37.793318 13.52603-15.515152 23.471639-34.212898 29.439006-53.706294l1.989122-7.558663c0.397824-2.386946 1.591298-4.773893 1.591297-7.558664l1.193474-7.558663c0.397824-2.386946 1.193473-5.171717 0.795648-7.558664l0.397825-7.558664c0-2.784771 0.397824-4.773893 0.397824-8.752136V346.107226c0-4.376068-0.397824-5.967366-0.397824-8.752137l-0.397825-7.558663c0-2.784771-0.795649-5.171717-0.795648-7.558664l-1.193474-7.558663c0-2.386946-1.193473-4.773893-1.591297-7.558664l-1.989122-7.558663c-5.967366-19.493395-15.912976-38.191142-29.439006-53.706294-13.52603-15.515152-30.234654-28.643357-48.534576-37.793318s-38.588967-14.321678-58.878011-15.117327l-3.978244-0.397824H274.697747v-19.095572H624.385392l4.376069 0.397825c23.073815 1.193473 45.749806 6.763015 66.436674 17.106449 20.686869 10.343434 39.384615 24.665113 54.501943 42.567211 15.117327 17.504274 26.654235 38.588967 33.019425 60.469308l1.989122 8.354312c0.795649 2.784771 1.591298 5.569542 1.989122 8.354313l1.193473 8.752136c0.397824 2.784771 1.193473 5.569542 1.193473 8.752137l0.397824 8.752137c0 3.182595 0.397824 5.569542 0.397825 9.547786v44.556332c0 3.978244-0.397824 6.36519-0.397825 9.547786l-0.397824 8.752136c0 2.784771-0.795649 5.569542-1.193473 8.752137l-1.193473 8.752137c-0.397824 2.784771-1.193473 5.569542-1.989122 8.354312l-1.989122 8.354313c-6.36519 22.278166-17.902098 42.965035-33.019425 60.469308-15.117327 17.504274-33.815074 32.223776-54.501943 42.567211-20.686869 10.343434-43.362859 16.3108-66.436674 17.106449l-4.376069 0.397824H274.697747z" fill="" p-id="1783"></path><path d="M274.697747 582.414918v-19.095571H624.385392l4.376069-0.397824c23.073815-1.193473 45.749806-6.763015 66.436674-17.106449 20.686869-10.343434 39.384615-24.665113 54.501943-42.567211 15.117327-17.504274 26.654235-38.588967 33.019425-60.469308l1.989122-8.354313c0.795649-2.784771 1.591298-5.569542 1.989122-8.354312l1.193473-8.752137c0.397824-2.784771 1.193473-5.569542 1.193473-8.752136l0.397824-8.752137c0-3.182595 0.397824-5.569542 0.397825-9.547786V345.709402c0-3.978244-0.397824-6.36519-0.397825-9.547786l-0.397824-8.752137c0-2.784771-0.795649-5.569542-1.193473-8.752136l-1.193473-8.752137c-0.397824-2.784771-1.193473-5.569542-1.989122-8.354312l-1.989122-8.354313c-6.36519-22.278166-17.902098-42.965035-33.019425-60.469308-15.117327-17.504274-33.815074-32.223776-54.501943-42.567211-20.686869-10.343434-43.362859-16.3108-66.436674-17.106449l-4.376069-0.397824H274.697747v-19.095571H620.009324c3.58042 0 6.36519 0.397824 9.94561 0.397824 25.858586 1.193473 50.921523 7.558664 74.393162 19.095571 23.073815 11.536908 43.760684 27.449883 60.469309 47.341103 16.708625 19.493395 29.439005 42.567211 36.997669 67.232324l2.386946 9.149961c0.795649 3.182595 1.989122 6.36519 1.989122 9.547785l1.591298 9.547786c0.397824 3.182595 1.193473 6.36519 1.193473 9.547785l0.397824 9.547786c0 3.182595 0.397824 6.36519 0.397825 10.343434V389.86791c0 3.978244-0.397824 6.763015-0.397825 10.343434l-0.397824 9.547786c0 3.182595-0.795649 6.36519-1.193473 9.547785l-1.591298 9.547786c-0.397824 3.182595-1.591298 6.36519-1.989122 9.547785l-2.386946 9.149962c-7.160839 24.665113-19.89122 47.738928-36.997669 67.232323-16.708625 19.493395-37.395493 35.804196-60.469309 47.341103-23.073815 11.536908-48.534577 17.902098-74.393162 19.095571-3.182595 0-6.36519 0.397824-9.94561 0.397825H274.697747z" fill="#F2F2F2" p-id="1784"></path><path d="M274.697747 601.51049v-19.095572H620.009324c3.58042 0 6.36519-0.397824 9.94561-0.397824 25.858586-1.193473 50.921523-7.558664 74.393162-19.095571 23.073815-11.536908 43.760684-27.449883 60.469309-47.341103 16.708625-19.493395 29.439005-42.567211 36.997669-67.232324l2.386946-9.149961c0.795649-3.182595 1.989122-6.36519 1.989122-9.547785l1.591298-9.547786c0.397824-3.182595 1.193473-6.36519 1.193473-9.547785l0.397824-9.547786c0-3.182595 0.397824-6.36519 0.397825-10.343434V346.107226c0-3.978244-0.397824-6.763015-0.397825-10.343434l-0.397824-9.547786c0-3.182595-0.795649-6.36519-1.193473-9.547785l-1.591298-9.547786c-0.397824-3.182595-1.591298-6.36519-1.989122-9.547785l-2.386946-9.149962c-7.160839-24.665113-19.89122-47.738928-36.997669-67.232323-16.708625-19.493395-37.395493-35.804196-60.469309-47.341103-23.073815-11.536908-48.534577-17.902098-74.393162-19.095571-3.182595 0-6.36519-0.397824-9.94561-0.397825H274.697747V135.260295H620.009324c3.58042 0 7.160839 0.397824 10.741259 0.397825 28.245532 1.193473 56.491064 8.354312 81.951826 21.084693 25.460761 12.730381 48.136752 30.234654 66.834499 52.114996 18.299922 21.482517 32.621601 46.943279 40.578088 74.393162l2.784771 10.343435c0.795649 3.58042 1.989122 6.763015 2.386946 10.343434l1.591298 10.343434c0.397824 3.58042 1.193473 7.160839 1.193473 10.741259l0.397824 10.741259c0 3.58042 0.397824 7.160839 0.397825 10.741259v44.556332c0 3.978244-0.397824 7.160839-0.397825 10.741259l-0.397824 10.741259c0 3.58042-0.795649 7.160839-1.193473 10.741258l-1.591298 10.343435c-0.397824 3.58042-1.591298 6.763015-2.386946 10.343434l-2.784771 10.343434c-7.956488 27.052059-21.880342 52.512821-40.578088 74.393163-18.299922 21.482517-41.373737 39.384615-66.834499 52.114996-25.460761 12.730381-53.308469 19.89122-81.951826 21.084693-3.58042 0-7.160839 0.397824-10.741259 0.397824H274.697747z" fill="" p-id="1785"></path><path d="M274.697747 620.606061v-19.095571H620.009324c3.58042 0 7.160839-0.397824 10.741259-0.397825 28.245532-1.193473 56.491064-8.354312 81.951826-21.084693 25.460761-12.730381 48.136752-30.234654 66.834499-52.114996 18.299922-21.482517 32.621601-46.943279 40.578088-74.393162l2.784771-10.343435c0.795649-3.58042 1.989122-6.763015 2.386946-10.343434l1.591298-10.343435c0.397824-3.58042 1.193473-7.160839 1.193473-10.741258l0.397824-10.741259c0-3.58042 0.397824-7.160839 0.397825-10.741259V345.709402c0-3.978244-0.397824-7.160839-0.397825-10.741259l-0.397824-10.741259c0-3.58042-0.795649-7.160839-1.193473-10.741259l-1.591298-10.343434c-0.397824-3.58042-1.591298-6.763015-2.386946-10.343434l-2.784771-10.343435c-7.956488-27.052059-21.880342-52.512821-40.578088-74.393162-18.299922-21.482517-41.373737-39.384615-66.834499-52.114996-25.460761-12.730381-53.308469-19.89122-81.951826-21.084693-3.58042 0-7.160839-0.397824-10.741259-0.397825H274.697747V115.369075H620.009324c3.58042 0 7.558664 0.397824 11.536908 0.397825 31.030303 1.193473 61.662782 9.149961 89.510489 23.073815 27.847708 13.52603 52.512821 33.019425 72.801865 56.888889 20.289044 23.471639 35.406371 51.319347 44.158508 81.156177l2.784771 11.139083c0.795649 3.58042 1.989122 7.558664 2.784771 11.139083l1.591297 11.536908c0.397824 3.978244 1.193473 7.558664 1.193473 11.536907l0.397825 11.536908c0 3.978244 0.397824 7.956488 0.397824 11.536907V389.86791c0 3.58042-0.397824 7.558664-0.397824 11.536907l-0.397825 11.536908c0 3.978244-0.795649 7.558664-1.193473 11.536907l-1.591297 11.536908c-0.397824 3.978244-1.591298 7.558664-2.784771 11.139083l-2.784771 11.139083c-8.752137 29.83683-24.267288 57.684538-44.158508 81.156177-20.289044 23.471639-44.954157 42.965035-72.801865 56.888889s-58.480186 21.482517-89.510489 23.073815c-3.978244 0-7.956488 0.397824-11.536908 0.397825H274.697747z" fill="#F2F2F2" p-id="1786"></path><path d="M274.697747 639.701632V620.606061H620.009324c3.58042 0 7.558664-0.397824 11.536908-0.397825 31.030303-1.193473 61.662782-9.149961 89.510489-23.073815 27.847708-13.52603 52.512821-33.019425 72.801865-56.888889 20.289044-23.471639 35.406371-51.319347 44.158508-81.156177l2.784771-11.139083c0.795649-3.58042 1.989122-7.558664 2.784771-11.139083l1.591297-11.536908c0.397824-3.978244 1.193473-7.558664 1.193473-11.536907l0.397825-11.536908c0-3.978244 0.397824-7.956488 0.397824-11.536907V346.107226c0-3.58042-0.397824-7.558664-0.397824-11.536907l-0.397825-11.536908c0-3.978244-0.795649-7.558664-1.193473-11.536908l-1.591297-11.536907c-0.397824-3.978244-1.591298-7.558664-2.784771-11.139083l-2.784771-11.139083c-8.752137-29.83683-24.267288-57.684538-44.158508-81.156177-20.289044-23.471639-44.954157-42.965035-72.801865-56.888889s-58.480186-21.482517-89.510489-23.073815c-3.978244 0-7.956488-0.397824-11.536908-0.397825H274.697747v-19.095571H620.009324c3.978244 0 8.354312 0.397824 12.332556 0.397824 33.417249 1.591298 66.834499 9.94561 97.069153 25.062938 30.234654 14.719503 57.286713 35.804196 78.769231 61.662781 21.880342 25.460761 38.191142 55.695416 48.136752 87.919192l3.182595 12.332556c0.795649 3.978244 2.386946 7.956488 2.784771 12.332557l1.989122 12.332556c0.397824 3.978244 1.591298 8.354312 1.591298 12.332556l0.795649 12.730381c0 3.978244 0.397824 8.752137 0.397824 11.934732v44.556333c0 3.58042-0.397824 7.956488-0.397824 11.934732l-0.795649 12.73038c0 4.376068-0.795649 8.354312-1.591298 12.332557l-1.989122 12.332556c-0.397824 4.376068-1.989122 8.354312-2.784771 12.332556l-3.182595 12.332557c-9.547786 32.223776-26.25641 62.45843-48.136752 87.919192-21.880342 25.460761-48.932401 46.545455-78.769231 61.662781-30.234654 14.719503-63.254079 23.471639-97.069153 25.062937-3.978244 0-8.752137 0.397824-12.332556 0.397825H274.697747z" fill="" p-id="1787"></path><path d="M274.697747 658.797203v-19.095571H620.009324c3.978244 0 8.354312-0.397824 12.332556-0.397825 33.417249-1.591298 66.834499-9.94561 97.069153-25.062937 30.234654-14.719503 57.286713-35.804196 78.769231-61.662781 21.880342-25.460761 38.191142-55.695416 48.136752-87.919192l3.182595-12.332557c0.795649-3.978244 2.386946-7.956488 2.784771-12.332556l1.989122-12.332556c0.397824-3.978244 1.591298-8.354312 1.591298-12.332557l0.795649-12.73038c0-3.978244 0.397824-8.752137 0.397824-11.934732V346.107226c0-3.58042-0.397824-7.956488-0.397824-11.934732l-0.795649-12.730381c0-4.376068-0.795649-8.354312-1.591298-12.332556l-1.989122-12.332556c-0.397824-4.376068-1.989122-8.354312-2.784771-12.332557l-3.182595-12.332556c-9.547786-32.223776-26.25641-62.45843-48.136752-87.919192-21.880342-25.460761-48.932401-46.545455-78.769231-61.662781-30.234654-14.719503-63.254079-23.471639-97.069153-25.062938-3.978244 0-8.752137-0.397824-12.332556-0.397824H274.697747v-19.095571h352.074592l6.763015 0.397824c36.20202 1.591298 72.006216 10.741259 104.627816 27.052059 32.621601 15.912976 61.662782 38.588967 85.134421 66.436675 23.471639 27.449883 41.373737 60.071484 51.717172 94.682207l3.58042 13.128205c1.193473 4.376068 2.386946 8.752137 3.182595 13.128205l1.989122 13.526029c0.795649 4.376068 1.591298 9.149961 1.591297 13.52603l0.795649 13.526029c0 4.376068 0.397824 9.547786 0.397825 12.730381v44.556333c0 3.182595-0.397824 8.354312-0.397825 12.73038l-0.795649 13.52603c0 4.376068-0.795649 9.149961-1.591297 13.526029l-1.989122 13.52603c-0.397824 4.376068-1.989122 8.752137-3.182595 13.128205l-3.58042 13.128205c-10.343434 35.008547-28.245532 67.232323-51.717172 94.682207-23.471639 27.449883-52.512821 50.125874-85.134421 66.436674-32.621601 15.912976-68.425796 25.460761-104.627816 27.052059l-6.763015 0.397825H274.697747z" fill="#F2F2F2" p-id="1788"></path><path d="M274.697747 677.892774v-19.095571h352.074592l6.763015-0.397825c36.20202-1.591298 72.006216-10.741259 104.627816-27.052059 32.621601-15.912976 61.662782-38.588967 85.134421-66.436674 23.471639-27.449883 41.373737-60.071484 51.717172-94.682207l3.58042-13.128205c1.193473-4.376068 2.386946-8.752137 3.182595-13.128205l1.989122-13.52603c0.795649-4.376068 1.591298-9.149961 1.591297-13.526029l0.795649-13.52603c0-4.376068 0.397824-9.547786 0.397825-12.73038V346.107226c0-3.182595-0.397824-8.354312-0.397825-12.730381l-0.795649-13.526029c0-4.376068-0.795649-9.149961-1.591297-13.52603l-1.989122-13.526029c-0.397824-4.376068-1.989122-8.752137-3.182595-13.128205l-3.58042-13.128205c-10.343434-35.008547-28.245532-67.232323-51.717172-94.682207-23.471639-27.449883-52.512821-50.125874-85.134421-66.436675-32.621601-15.912976-68.425796-25.460761-104.627816-27.052059l-6.763015-0.397824H274.697747v-19.095571h352.472416l7.160839 0.397824c38.986791 1.591298 77.575758 11.536908 112.186481 29.041181 35.008547 17.106449 66.03885 41.373737 91.101787 71.210568 25.062937 29.439005 44.158508 64.049728 55.297591 101.445221l3.580419 14.321678c1.193473 4.773893 2.784771 9.547786 3.182596 14.321679l2.386946 14.321678c0.795649 4.773893 1.591298 9.547786 1.591298 14.321678l0.795648 14.719503c0.397824 4.773893 0.397824 10.343434 0.397825 13.52603v44.556332c0 3.182595-0.397824 8.752137-0.397825 13.52603l-0.795648 14.719502c0 4.773893-1.193473 9.547786-1.591298 14.321679l-2.386946 14.321678c-0.795649 4.773893-1.989122 9.547786-3.182596 14.321678l-3.580419 14.321679c-11.139083 37.395493-30.234654 72.006216-55.297591 101.445221-25.062937 29.439005-56.09324 53.706294-91.101787 71.210567-34.610723 17.106449-73.597514 27.052059-112.186481 29.041181l-7.160839 0.397825H274.697747z" fill="" p-id="1789"></path><path d="M274.697747 696.988345v-19.095571h352.472416l7.160839-0.397825c38.986791-1.591298 77.575758-11.536908 112.186481-29.041181 35.008547-17.106449 66.03885-41.373737 91.101787-71.210567 25.062937-29.439005 44.158508-64.049728 55.297591-101.445221l3.580419-14.321679c1.193473-4.773893 2.784771-9.547786 3.182596-14.321678l2.386946-14.321678c0.795649-4.773893 1.591298-9.547786 1.591298-14.321678l0.795648-14.719503c0.397824-4.773893 0.397824-10.343434 0.397825-13.52603V345.709402c0-3.182595-0.397824-8.752137-0.397825-13.52603l-0.795648-14.719503c0-4.773893-1.193473-9.547786-1.591298-14.321678l-2.386946-14.321678c-0.795649-4.773893-1.989122-9.547786-3.182596-14.321679l-3.580419-14.321678c-11.139083-37.395493-30.234654-72.006216-55.297591-101.445221-25.062937-29.439005-56.09324-53.706294-91.101787-71.210567-34.610723-17.106449-73.597514-27.052059-112.186481-29.041182l-7.160839-0.397824H274.697747V39.384615H627.567988l7.956488 0.397825c41.373737 1.989122 82.747475 12.332556 119.745143 31.030303 37.395493 18.299922 70.414918 44.158508 97.069153 75.98446 26.654235 31.428127 47.341103 68.425796 59.275836 108.60606l3.978244 15.117328c1.193473 5.171717 2.784771 9.94561 3.580419 15.117327l2.386947 15.515151c0.795649 5.171717 1.591298 10.343434 1.989122 15.515152l0.795648 15.515151c0.397824 5.171717 0.397824 11.139083 0.397825 13.923854v44.556333c0 3.182595-0.397824 9.149961-0.397825 13.923854l-0.795648 15.515151c0 5.171717-1.193473 10.343434-1.989122 15.515152l-2.386947 15.515151c-0.795649 5.171717-2.386946 9.94561-3.580419 15.117327l-3.978244 15.117327c-11.934732 39.78244-32.223776 77.177933-59.275836 108.606061-26.654235 31.428127-60.071484 57.286713-97.069153 75.98446-36.997669 18.299922-78.371406 29.041181-119.745143 31.030303l-7.956488 0.397824H274.697747z" fill="#F2F2F2" p-id="1790"></path><path d="M274.697747 735.179487V716.083916H627.567988l8.354312-0.397824c44.158508-1.989122 87.919192-13.128205 127.303807-32.621601 39.384615-19.493395 74.790987-46.943279 103.434344-80.360528 28.643357-33.417249 50.125874-72.801865 62.856255-115.369076l4.376068-15.912976c1.193473-5.569542 2.784771-10.741259 3.580419-16.3108l2.386947-16.3108c0.795649-5.569542 1.591298-10.741259 1.989122-16.310801l0.795649-16.708624c0.397824-5.171717 0.397824-11.934732 0.397824-14.719503V346.505051c0-2.784771-0.397824-9.547786-0.397824-14.719503l-0.795649-16.708625c0-5.569542-1.193473-11.139083-1.989122-16.3108l-2.386947-16.310801c-0.795649-5.569542-2.386946-10.741259-3.580419-16.3108l-4.376068-15.912976c-12.730381-42.567211-34.212898-81.951826-62.856255-115.369075-28.643357-33.417249-63.651904-60.867133-103.434344-80.360528-39.384615-19.493395-83.543124-31.030303-127.303807-32.621601l-8.354312-0.397825H274.697747V1.193473H627.965812l8.752137 0.397825c46.545455 2.386946 93.090909 14.321678 135.260295 35.008547 41.771562 20.686869 79.167055 49.72805 109.401709 85.134421 30.234654 35.406371 53.308469 77.177933 66.436675 122.13209 1.591298 5.569542 3.182595 11.139083 4.376068 17.106449 1.193473 5.569542 3.182595 11.139083 3.978244 17.106449l2.784771 17.504274c0.795649 5.967366 1.989122 11.536908 1.989122 17.504273l0.795649 17.504274c0.397824 5.569542 0.397824 12.730381 0.397824 15.515151v44.556333c0 2.784771-0.397824 9.94561-0.397824 15.515151l-0.795649 17.504274c-0.397824 5.967366-1.193473 11.536908-1.989122 17.504273l-2.784771 17.504274c-0.795649 5.967366-2.386946 11.536908-3.978244 17.106449s-2.784771 11.536908-4.376068 17.106449c-13.52603 44.954157-36.599845 86.725719-66.436675 122.13209-30.234654 35.406371-67.630148 64.447552-109.401709 85.134421-41.771562 20.686869-88.317016 32.621601-134.862471 34.610723l-8.752137 0.397824H274.697747z" fill="#F2F2F2" p-id="1791"></path><path d="M274.697747 716.083916v-19.095571H627.567988l7.956488-0.397824c41.373737-1.989122 82.747475-12.332556 119.745143-31.030303 37.395493-18.299922 70.414918-44.158508 97.069153-75.98446 26.654235-31.428127 47.341103-68.425796 59.275836-108.606061l3.978244-15.117327c1.193473-5.171717 2.784771-9.94561 3.580419-15.117327l2.386947-15.515152c0.795649-5.171717 1.591298-10.343434 1.989122-15.515151l0.795648-15.515152c0.397824-5.171717 0.397824-11.139083 0.397825-13.923854V345.709402c0-3.182595-0.397824-9.149961-0.397825-13.923854l-0.795648-15.515152c0-5.171717-1.193473-10.343434-1.989122-15.515151l-2.386947-15.515152c-0.795649-5.171717-2.386946-9.94561-3.580419-15.117327l-3.978244-15.117327c-11.934732-39.78244-32.223776-77.177933-59.275836-108.606061-26.654235-31.428127-60.071484-57.286713-97.069153-75.98446-36.997669-18.299922-78.371406-29.041181-119.745143-31.030303l-7.956488-0.397824H274.697747V20.289044H627.567988l8.354312 0.397825c44.158508 1.989122 87.919192 13.128205 127.303807 32.6216 39.384615 19.493395 74.790987 46.943279 103.434344 80.360529 28.643357 33.417249 50.125874 72.801865 62.856255 115.369075l4.376068 15.912976c1.193473 5.569542 2.784771 10.741259 3.580419 16.3108l2.386947 16.310801c0.795649 5.569542 1.591298 10.741259 1.989122 16.3108l0.795649 16.708625c0.397824 5.171717 0.397824 11.934732 0.397824 14.719502V389.86791c0 2.784771-0.397824 9.547786-0.397824 14.719503l-0.795649 16.708624c0 5.569542-1.193473 11.139083-1.989122 16.310801l-2.386947 16.3108c-0.795649 5.569542-2.386946 10.741259-3.580419 16.3108l-4.376068 15.912976c-12.730381 42.567211-34.212898 81.951826-62.856255 115.369076-28.643357 33.417249-63.651904 60.867133-103.434344 80.360528-39.384615 19.493395-83.543124 31.030303-127.303807 32.6216l-8.354312 0.397825H274.697747z" fill="" p-id="1792"></path><path d="M185.585082 0v1024" fill="" p-id="1793"></path><path d="M61.463869 0h19.095572v1024H61.463869z" fill="#F2F2F2" p-id="1794"></path><path d="M80.559441 0h19.095571v1024H80.559441z" fill="" p-id="1795"></path><path d="M99.655012 0h19.095571v1024H99.655012z" fill="#F2F2F2" p-id="1796"></path><path d="M118.750583 0h19.095571v1024h-19.095571z" fill="" p-id="1797"></path><path d="M137.846154 0H156.941725v1024h-19.095571z" fill="#F2F2F2" p-id="1798"></path><path d="M156.941725 0h19.095571v1024H156.941725z" fill="" p-id="1799"></path><path d="M176.037296 0h19.095571v1024h-19.095571z" fill="#F2F2F2" p-id="1800"></path><path d="M195.132867 0h19.095571v1024h-19.095571z" fill="" p-id="1801"></path><path d="M214.228438 0h19.095571v1024h-19.095571z" fill="#F2F2F2" p-id="1802"></path><path d="M233.324009 0H252.41958v1024h-19.095571z" fill="" p-id="1803"></path><path d="M252.41958 0h19.095572v1024H252.41958zM290.610723 0h19.095571v1024h-19.095571z" fill="#F2F2F2" p-id="1804"></path><path d="M271.515152 0h19.095571v1024h-19.095571z" fill="" p-id="1805"></path></svg>