<?xml version="1.0" standalone="no"?>
<!DOCTYPE svg PUBLIC "-//W3C//DTD SVG 20010904//EN"
 "http://www.w3.org/TR/2001/REC-SVG-20010904/DTD/svg10.dtd">
<svg version="1.0" xmlns="http://www.w3.org/2000/svg"
 width="597.000000pt" height="597.000000pt" viewBox="0 0 597.000000 597.000000"
 preserveAspectRatio="xMidYMid meet">
<metadata>
Created by potrace 1.11, written by Peter Selinger 2001-2013
</metadata>
<g transform="translate(0.000000,597.000000) scale(0.100000,-0.100000)"
fill="#000000" stroke="none">
<path d="M2659 5956 c-4 -3 -76 -14 -144 -21 -24 -3 -167 -31 -247 -50 -36 -8
-144 -37 -158 -43 -8 -3 -18 -6 -22 -7 -5 -2 -9 -3 -10 -5 -2 -1 -11 -3 -21
-5 -87 -17 -552 -227 -607 -275 -13 -11 -26 -17 -30 -15 -5 3 -10 1 -12 -3 -1
-4 -30 -26 -63 -47 -68 -45 -188 -130 -224 -160 -14 -11 -43 -36 -65 -55 -22
-19 -47 -39 -54 -45 -25 -19 -217 -211 -262 -261 -44 -50 -69 -81 -129 -159
-17 -22 -40 -50 -51 -62 -11 -13 -17 -23 -13 -23 4 0 -2 -8 -13 -18 -10 -10
-28 -35 -39 -55 -11 -20 -23 -37 -27 -37 -5 0 -8 -4 -8 -8 0 -5 -23 -47 -51
-93 -27 -46 -60 -104 -72 -129 -12 -25 -25 -46 -29 -48 -5 -2 -8 -8 -8 -14 0
-6 -16 -45 -36 -87 -51 -109 -51 -109 -79 -186 -81 -221 -136 -431 -161 -615
-3 -25 -9 -54 -12 -65 -10 -35 -11 -678 -1 -735 5 -30 12 -77 15 -105 5 -40
27 -153 49 -245 28 -124 82 -289 142 -435 48 -119 169 -358 184 -363 5 -2 7
-8 3 -13 -3 -5 0 -9 6 -9 6 0 8 -5 5 -10 -3 -5 -1 -10 4 -10 6 0 11 -5 11 -10
0 -24 194 -291 295 -406 116 -132 248 -258 400 -382 6 -4 26 -19 45 -32 19
-14 39 -30 45 -36 16 -18 195 -134 205 -134 6 0 10 -3 10 -8 0 -4 15 -13 33
-21 17 -8 34 -17 37 -21 9 -11 252 -130 266 -130 8 0 14 -4 14 -10 0 -5 8 -10
18 -10 10 0 22 -3 26 -7 4 -5 11 -8 14 -9 4 0 25 -8 47 -18 74 -32 279 -97
385 -121 89 -21 199 -43 255 -51 17 -2 40 -6 53 -8 133 -27 609 -28 787 -1 49
7 216 36 230 39 6 2 24 6 40 10 179 43 346 97 500 161 89 36 291 138 350 176
17 10 39 23 50 29 20 10 49 28 69 43 6 4 56 40 112 80 110 78 159 117 238 187
82 73 235 229 277 282 21 27 39 46 39 41 1 -4 6 1 13 13 7 11 44 63 83 115
127 170 201 292 295 485 38 78 69 145 69 147 0 3 8 22 17 43 20 47 19 42 28
82 4 17 11 32 15 32 3 0 7 6 8 13 0 6 17 65 36 130 20 65 38 128 40 140 2 12
9 40 14 62 6 22 13 56 17 75 3 19 8 47 10 63 3 15 7 42 10 60 23 134 32 286
29 497 -2 129 -6 249 -8 265 -3 17 -8 57 -12 90 -3 33 -8 63 -10 67 -3 4 -7
26 -10 50 -5 36 -18 99 -39 193 -3 11 -7 29 -9 40 -41 187 -224 621 -330 782
-19 28 -32 54 -30 56 2 2 -5 12 -16 22 -11 10 -20 24 -20 32 0 7 -4 13 -10 13
-5 0 -10 7 -10 15 0 9 -7 18 -15 21 -8 4 -15 10 -15 15 0 12 -136 191 -202
264 -108 122 -273 279 -383 365 -22 17 -48 37 -58 45 -9 8 -45 34 -80 57 -34
23 -65 47 -69 53 -5 6 -8 6 -8 0 0 -7 -3 -7 -8 0 -10 14 -89 65 -101 65 -5 0
-11 4 -13 9 -4 13 -258 143 -353 181 -44 18 -93 38 -110 45 -67 28 -330 108
-397 120 -13 3 -43 9 -68 15 -53 12 -89 18 -150 26 -25 3 -56 8 -70 12 -27 6
-684 14 -691 8z"/>
</g>
</svg>
